Coordinates
version=1
nRows=42
nColumns=38
inDegrees=no

Units are S.I. units (second, meters, Newtons, ...)
If the header above contains a line with 'inDegrees', this indicates whether rotational values are in degrees (yes) or radians (no).

endheader
time	pelvis_tilt	pelvis_list	pelvis_rotation	pelvis_tx	pelvis_ty	pelvis_tz	hip_flexion_r	hip_adduction_r	hip_rotation_r	knee_angle_r	ankle_angle_r	subtalar_angle_r	mtp_angle_r	hip_flexion_l	hip_adduction_l	hip_rotation_l	knee_angle_l	ankle_angle_l	subtalar_angle_l	mtp_angle_l	lumbar_extension	lumbar_bending	lumbar_rotation	arm_flex_r	arm_add_r	arm_rot_r	elbow_flex_r	pro_sup_r	wrist_flex_r	wrist_dev_r	arm_flex_l	arm_add_l	arm_rot_l	elbow_flex_l	pro_sup_l	wrist_flex_l	wrist_dev_l
9.04	3.06194	1.34639	-1.58378	0.721175	1.91371	0.948497	0.110351	-0.158141	-0.248907	0.657012	0.011499	0	0	-0.0911676	0.0390323	-0.337374	0.250834	-0.0325262	0	0	-0.336884	-0.0927719	0.0779892	1.04033	-0.219276	0.593775	0.728625	0	0	0	0.935214	-0.138138	0.417878	0.784014	1.5708	0	0
9.05	3.07315	1.34576	-1.59456	0.720775	1.91178	0.948301	0.112757	-0.166156	-0.245736	0.68939	0.0139498	0	0	-0.0869845	0.0410776	-0.33796	0.254855	-0.0346711	0	0	-0.334334	-0.094428	0.077209	1.03912	-0.220515	0.598486	0.727355	0	0	0	0.930781	-0.139074	0.418985	0.786309	1.5708	0	0
9.06	3.08546	1.34618	-1.60675	0.720477	1.90987	0.947983	0.116424	-0.173859	-0.24016	0.722899	0.0164297	0	0	-0.0813808	0.0432047	-0.338424	0.259546	-0.0364296	0	0	-0.330391	-0.0963823	0.0767512	1.03712	-0.221849	0.603561	0.726987	0	0	0	0.925874	-0.140438	0.420467	0.789036	1.5708	0	0
9.07	3.09601	1.34723	-1.61743	0.720265	1.90793	0.947614	0.120626	-0.180166	-0.231625	0.756119	0.0180949	0	0	-0.0745945	0.0445671	-0.339764	0.265101	-0.0373801	0	0	-0.325497	-0.0979088	0.0766235	1.03448	-0.223091	0.607722	0.727082	0	0	0	0.92073	-0.141992	0.421972	0.791678	1.5708	0	0
9.08	3.10291	1.34785	-1.62459	0.720056	1.906	0.947298	0.123246	-0.184997	-0.223157	0.788341	0.0190258	0	0	-0.0680456	0.0448442	-0.342218	0.271276	-0.0373911	0	0	-0.320895	-0.0984382	0.0769384	1.03125	-0.224587	0.610653	0.727997	0	0	0	0.915395	-0.143252	0.422908	0.794366	1.5708	0	0
9.09	3.10678	1.35229	-1.62979	0.719793	1.90424	0.94685	0.129683	-0.188296	-0.212471	0.81971	0.0180243	0	0	-0.0570051	0.0441103	-0.345577	0.27869	-0.0375751	0	0	-0.31184	-0.0960008	0.0777932	1.02768	-0.225035	0.615996	0.728565	0	0	0	0.891921	-0.124826	0.182717	0.889439	1.01776	0	0
9.1	3.1192	1.34943	-1.64212	0.719959	1.90211	0.946578	0.127671	-0.193523	-0.202751	0.850666	0.0180423	0	0	-0.0538251	0.0451283	-0.346865	0.285431	-0.0385273	0	0	-0.311203	-0.100311	0.0790723	1.0223	-0.228606	0.61294	0.734144	0	0	0	0.905589	-0.146744	0.429771	0.800414	1.5708	0	0
9.11	3.12154	1.35235	-1.64613	0.719843	1.90028	0.946292	0.130703	-0.195203	-0.190333	0.878326	0.0152205	0	0	-0.045348	0.0443678	-0.348439	0.291068	-0.0403659	0	0	-0.303906	-0.097321	0.0804148	1.01802	-0.228754	0.615464	0.736054	0	0	0	0.881464	-0.127439	0.18759	0.895905	1.03776	0	0
9.12	3.12946	1.34904	-1.65412	0.720151	1.89804	0.946104	0.12638	-0.19806	-0.180198	0.905868	0.0160405	0	0	-0.0425432	0.0441362	-0.349417	0.297992	-0.0410707	0	0	-0.303966	-0.100519	0.0820329	1.01179	-0.232166	0.610876	0.742938	0	0	0	0.894868	-0.149021	0.429113	0.807463	1.5708	0	0
9.13	3.13221	1.34853	-1.65799	0.720366	1.89597	0.945916	0.124033	-0.199152	-0.169037	0.930522	0.014146	0	0	-0.0376283	0.043017	-0.350049	0.303668	-0.0421843	0	0	-0.30067	-0.099965	0.0835807	1.00604	-0.233386	0.608392	0.747725	0	0	0	0.888198	-0.149938	0.426464	0.812053	1.5708	0	0
9.14	3.13596	1.34779	-1.66318	0.720617	1.89391	0.945726	0.120414	-0.200517	-0.159062	0.953388	0.012469	0	0	-0.0332361	0.0423609	-0.351527	0.308742	-0.0435246	0	0	-0.297424	-0.0995685	0.0854985	0.999539	-0.234819	0.60526	0.75391	0	0	0	0.881395	-0.15146	0.425876	0.817205	1.5708	0	0
9.15	3.1401	1.34647	-1.66877	0.720824	1.89186	0.945619	0.114936	-0.202338	-0.150894	0.973924	0.01051	0	0	-0.0296592	0.0421325	-0.353798	0.313224	-0.0455909	0	0	-0.294658	-0.0990121	0.087293	0.992811	-0.236221	0.601656	0.760797	0	0	0	0.874031	-0.152923	0.424204	0.822647	1.5708	0	0
9.16	-3.13777	1.34517	-1.67572	0.721036	1.88978	0.94553	0.108795	-0.204663	-0.1433	0.991846	0.00710781	0	0	-0.0261399	0.0422991	-0.356496	0.317354	-0.0481527	0	0	-0.291668	-0.0986106	0.088888	0.985636	-0.237166	0.596943	0.767752	0	0	0	0.866045	-0.154559	0.421732	0.828392	1.5708	0	0
9.17	-3.13247	1.34459	-1.6826	0.721308	1.88756	0.945361	0.102791	-0.206648	-0.135882	1.00729	-0.00104318	0	0	-0.0218167	0.0424217	-0.357848	0.321159	-0.0505494	0	0	-0.288015	-0.098095	0.0902126	0.978118	-0.237823	0.591423	0.775107	0	0	0	0.857801	-0.156509	0.418964	0.834487	1.5708	0	0
9.18	-3.12744	1.34416	-1.68914	0.721677	1.88522	0.945138	0.0961747	-0.208437	-0.129778	1.02004	-0.00842355	0	0	-0.0172625	0.0422927	-0.358885	0.324916	-0.0530007	0	0	-0.284502	-0.0975335	0.0913564	0.970393	-0.238505	0.585186	0.783475	0	0	0	0.849545	-0.15895	0.416327	0.841355	1.5708	0	0
9.19	-3.12243	1.34384	-1.69596	0.72209	1.88276	0.944889	0.0891528	-0.210303	-0.124705	1.03009	-0.0176834	0	0	-0.0125066	0.0419781	-0.360453	0.328707	-0.0554204	0	0	-0.281116	-0.0968638	0.0927286	0.962506	-0.239307	0.578398	0.792657	0	0	0	0.841012	-0.161441	0.413183	0.848878	1.5708	0	0
9.2	-3.11859	1.34288	-1.70217	0.722511	1.88026	0.944728	0.080486	-0.212298	-0.121008	1.03662	-0.0287798	0	0	-0.00893938	0.0415153	-0.363239	0.331693	-0.0578638	0	0	-0.278437	-0.09582	0.0946323	0.954344	-0.240448	0.571723	0.802667	0	0	0	0.832137	-0.163598	0.409412	0.856434	1.5708	0	0
9.21	3.08731	1.31709	-1.65334	0.726693	1.87516	0.947856	0.0483592	-0.18192	-0.0843236	1.03081	-0.0501853	0	0	-0.0371087	0.0173943	-0.40277	0.332173	-0.0606225	0	0	-0.309352	-0.0834514	0.1215	0.95976	-0.241447	0.574068	0.811824	0	0	0	0.815889	-0.146762	0.179535	0.9545	1.00244	0	0
9.22	3.0894	1.31147	-1.65713	0.727336	1.87224	0.947953	0.0328803	-0.184421	-0.0842041	1.03071	-0.0609363	0	0	-0.0386103	0.0161537	-0.406198	0.334984	-0.0630314	0	0	-0.312139	-0.0840754	0.124218	0.950726	-0.244779	0.564332	0.824752	0	0	0	0.825844	-0.168559	0.405055	0.871258	1.5708	0	0
9.23	3.0876	1.30893	-1.65797	0.727891	1.86925	0.948008	0.0204336	-0.185592	-0.0839017	1.02716	-0.0724637	0	0	-0.0370439	0.0140801	-0.409491	0.337222	-0.0660117	0	0	-0.312231	-0.0813172	0.126024	0.943832	-0.245787	0.55913	0.834728	0	0	0	0.8167	-0.170036	0.397116	0.878654	1.5708	0	0
9.24	3.07989	1.30768	-1.65326	0.728314	1.86633	0.948198	0.00778425	-0.184935	-0.0845001	1.01912	-0.0824903	0	0	-0.0349533	0.0107203	-0.412866	0.338221	-0.0695193	0	0	-0.311505	-0.0748669	0.126709	0.938069	-0.245398	0.556915	0.844789	0	0	0	0.790004	-0.15279	0.167126	0.977159	1.00055	0	0
9.25	3.07839	1.30283	-1.65313	0.729203	1.863	0.948238	-0.00905317	-0.18526	-0.0871786	1.01041	-0.0876349	0	0	-0.03546	0.00804945	-0.415811	0.34074	-0.0722337	0	0	-0.314124	-0.0743841	0.12962	0.929533	-0.248639	0.547133	0.857757	0	0	0	0.799856	-0.174699	0.388484	0.894715	1.5708	0	0
9.26	3.07303	1.29958	-1.6499	0.729887	1.85969	0.948359	-0.0248981	-0.184696	-0.0906512	0.997866	-0.0885392	0	0	-0.0347042	0.00475248	-0.419121	0.342369	-0.0756134	0	0	-0.315786	-0.0703728	0.131235	0.923391	-0.249915	0.542367	0.869154	0	0	0	0.791181	-0.176099	0.379769	0.90283	1.5708	0	0
9.27	3.06678	1.29561	-1.64555	0.730596	1.85627	0.948545	-0.0425128	-0.183582	-0.0953524	0.981278	-0.0884117	0	0	-0.0346428	0.00103447	-0.422691	0.344006	-0.0792003	0	0	-0.318416	-0.0660211	0.132861	0.9181	-0.251327	0.538438	0.880218	0	0	0	0.783409	-0.177863	0.373666	0.910451	1.5708	0	0
9.28	3.05942	1.29194	-1.6402	0.731416	1.85262	0.948727	-0.0603085	-0.181408	-0.100949	0.960744	-0.0829945	0	0	-0.0340691	-0.00327576	-0.426133	0.345639	-0.0829604	0	0	-0.321023	-0.061514	0.134546	0.913774	-0.252109	0.534878	0.889498	0	0	0	0.77611	-0.179578	0.367659	0.917416	1.5708	0	0
9.29	3.05098	1.28839	-1.63404	0.732405	1.8487	0.948871	-0.0782171	-0.178266	-0.107779	0.936759	-0.0705516	0	0	-0.0335909	-0.00788222	-0.42897	0.346326	-0.0871828	0	0	-0.32417	-0.0569597	0.136802	0.909843	-0.253035	0.531452	0.899374	0	0	0	0.769752	-0.181405	0.362057	0.924425	1.5708	0	0
9.3	3.04104	1.28569	-1.62631	0.733508	1.84454	0.948926	-0.0955442	-0.173894	-0.11583	0.909168	-0.0567902	0	0	-0.0314188	-0.0136498	-0.432374	0.348063	-0.0916041	0	0	-0.326788	-0.0519946	0.139298	0.906626	-0.253917	0.528001	0.908419	0	0	0	0.764093	-0.183259	0.35702	0.931094	1.5708	0	0
9.31	3.03027	1.28243	-1.61766	0.734635	1.84027	0.949024	-0.114398	-0.168548	-0.125226	0.878184	-0.0464815	0	0	-0.0299844	-0.0196588	-0.435686	0.349327	-0.0963791	0	0	-0.330255	-0.0467198	0.141844	0.904145	-0.254921	0.524991	0.917007	0	0	0	0.75886	-0.185018	0.35208	0.937772	1.5708	0	0
9.32	3.02053	1.27967	-1.60895	0.735816	1.83599	0.949111	-0.133931	-0.162498	-0.136901	0.845325	-0.0355943	0	0	-0.0283566	-0.0252691	-0.437421	0.349569	-0.101123	0	0	-0.333004	-0.0417199	0.143545	0.900761	-0.255539	0.521262	0.925513	0	0	0	0.753847	-0.186739	0.347629	0.943768	1.5708	0	0
9.33	3.01327	1.27724	-1.60322	0.737162	1.83143	0.949115	-0.152705	-0.156225	-0.147653	0.813298	-0.0220072	0	0	-0.0262501	-0.0302447	-0.439478	0.349588	-0.10528	0	0	-0.335778	-0.0378391	0.14575	0.897784	-0.256162	0.518833	0.933898	0	0	0	0.749835	-0.188515	0.34396	0.948838	1.5708	0	0
9.34	3.00592	1.27825	-1.59826	0.738512	1.82673	0.948941	-0.166565	-0.149684	-0.156974	0.783825	-0.00298524	0	0	-0.0200521	-0.0353523	-0.441924	0.349897	-0.110061	0	0	-0.335879	-0.0326148	0.146344	0.896834	-0.254352	0.520461	0.940318	0	0	0	0.729448	-0.171428	0.12612	1.04283	0.962131	0	0
9.35	3.00501	1.27427	-1.59718	0.740164	1.82174	0.948865	-0.186203	-0.144334	-0.170037	0.75649	0.0203137	0	0	-0.0185305	-0.0394135	-0.443623	0.350587	-0.115336	0	0	-0.340022	-0.0325612	0.149415	0.89251	-0.256686	0.514423	0.949583	0	0	0	0.743917	-0.194268	0.342635	0.957926	1.5708	0	0
9.36	2.99928	1.27075	-1.59179	0.741608	1.81676	0.949003	-0.204527	-0.137544	-0.183079	0.729385	0.0392921	0	0	-0.0171496	-0.0444408	-0.446237	0.350024	-0.122269	0	0	-0.344508	-0.0290998	0.150158	0.891461	-0.256352	0.51302	0.956014	0	0	0	0.740138	-0.196035	0.336774	0.963023	1.5708	0	0
9.37	2.98984	1.2669	-1.58262	0.743078	1.81145	0.949256	-0.22244	-0.128824	-0.195831	0.700917	0.0546507	0	0	-0.0158987	-0.0507718	-0.447909	0.349095	-0.130106	0	0	-0.350048	-0.0244741	0.151442	0.891038	-0.256367	0.511344	0.962689	0	0	0	0.737634	-0.197941	0.333623	0.967497	1.5708	0	0
9.38	2.9779	1.2639	-1.57089	0.744553	1.80579	0.949518	-0.239511	-0.118349	-0.207795	0.669724	0.0678375	0	0	-0.0130856	-0.0580376	-0.448448	0.348301	-0.138231	0	0	-0.355482	-0.0189527	0.152941	0.891511	-0.256625	0.510553	0.969385	0	0	0	0.735686	-0.199393	0.329901	0.971579	1.5708	0	0
9.39	2.96656	1.26076	-1.55859	0.746079	1.79994	0.949803	-0.258111	-0.106969	-0.220744	0.635431	0.0784135	0	0	-0.0100677	-0.0654569	-0.448018	0.347346	-0.146955	0	0	-0.361414	-0.0135	0.153572	0.892706	-0.256707	0.510891	0.97554	0	0	0	0.734362	-0.201023	0.326384	0.975733	1.5708	0	0
9.4	2.95511	1.2577	-1.54581	0.747632	1.79386	0.950121	-0.276029	-0.0953221	-0.23373	0.600937	0.0860128	0	0	-0.00682412	-0.0730403	-0.447444	0.345815	-0.156463	0	0	-0.367679	-0.0079199	0.153969	0.894848	-0.256573	0.511896	0.980741	0	0	0	0.733451	-0.202654	0.322771	0.979779	1.5708	0	0
9.41	2.94012	1.25684	-1.52966	0.749075	1.78771	0.950478	-0.290375	-0.082281	-0.244025	0.566469	0.089993	0	0	-0.00154318	-0.0814862	-0.446854	0.343114	-0.167499	0	0	-0.372621	0.000235472	0.152372	0.899361	-0.2542	0.516835	0.983835	0	0	0	0.716441	-0.184571	0.110417	1.07237	0.982424	0	0
9.42	2.92934	1.25163	-1.51617	0.75072	1.78112	0.951016	-0.308938	-0.0691566	-0.253545	0.531992	0.0920333	0	0	-0.000842274	-0.0893517	-0.445577	0.339694	-0.179204	0	0	-0.381138	0.00473412	0.154851	0.900567	-0.257	0.514779	0.990424	0	0	0	0.733868	-0.205288	0.317697	0.984982	1.5708	0	0
9.43	2.91551	1.24986	-1.50016	0.752196	1.77449	0.951481	-0.321911	-0.0553972	-0.25954	0.499296	0.0929495	0	0	0.00312924	-0.0975499	-0.444149	0.33502	-0.191415	0	0	-0.38688	0.0117717	0.15515	0.904453	-0.256849	0.516473	0.993933	0	0	0	0.733961	-0.204939	0.310921	0.986286	1.5708	0	0
9.44	2.90361	1.24819	-1.48575	0.753677	1.76776	0.951962	-0.333743	-0.0421626	-0.263395	0.467622	0.0926436	0	0	0.00662395	-0.10497	-0.44224	0.32888	-0.204262	0	0	-0.392563	0.0182	0.155421	0.908902	-0.256608	0.518661	0.996598	0	0	0	0.735043	-0.204673	0.306407	0.986684	1.5708	0	0
9.45	2.89183	1.25072	-1.47167	0.755086	1.76111	0.952269	-0.339162	-0.0300561	-0.265436	0.438762	0.0909064	0	0	0.0140363	-0.111488	-0.439528	0.321356	-0.218095	0	0	-0.394364	0.0254797	0.153668	0.914757	-0.253886	0.523667	0.997136	0	0	0	0.720084	-0.184088	0.0936224	1.07519	0.985655	0	0
